<?xml version="1.0" encoding="UTF-8"?>
<!DOCTYPE svg PUBLIC "-//W3C//DTD SVG 1.1//EN" "http://www.w3.org/Graphics/SVG/1.1/DTD/svg11.dtd">
<!-- Creator: CorelDRAW X7 -->
<svg xmlns="http://www.w3.org/2000/svg" xml:space="preserve" width="64.2638mm" height="9.2081mm" version="1.1" style="shape-rendering:geometricPrecision; text-rendering:geometricPrecision; image-rendering:optimizeQuality; fill-rule:evenodd; clip-rule:evenodd"
viewBox="0 0 3843 551"
 xmlns:xlink="http://www.w3.org/1999/xlink">
 <defs>
  <style type="text/css">
   <![CDATA[
    .fil0 {fill:#34495E}
   ]]>
  </style>
 </defs>
 <g id="Layer_x0020_1">
  <metadata id="CorelCorpID_0Corel-Layer"/>
  <path class="fil0" d="M786 129l51 0 0 99c-13,10 -28,17 -46,23 -17,5 -35,7 -52,7 -25,0 -48,-5 -68,-16 -20,-10 -36,-25 -47,-44 -12,-19 -17,-41 -17,-65 0,-24 5,-45 17,-65 11,-19 27,-34 47,-44 21,-11 44,-16 69,-16 21,0 41,3 58,10 17,8 32,18 43,32l-36 33c-17,-18 -38,-28 -62,-28 -16,0 -29,4 -41,10 -13,7 -22,16 -29,28 -6,11 -10,25 -10,40 0,15 4,28 10,40 7,12 16,21 28,28 12,6 26,10 41,10 16,0 31,-4 44,-11l0 -71zm3026 249l28 0 0 113 -28 0 0 -113zm14 -21c-5,0 -10,-2 -13,-6 -4,-3 -5,-7 -5,-12 0,-5 1,-9 5,-12 3,-4 8,-5 13,-5 5,0 9,1 12,5 4,3 5,7 5,12 0,5 -1,9 -5,12 -3,4 -7,6 -12,6zm-90 42l-20 0 0 -21 20 0 0 -46 26 -6 0 52 27 0 0 21 -27 0 0 92 -26 0 0 -92zm-99 -21l26 0 0 22c3,-8 7,-14 13,-18 6,-5 13,-7 20,-7 5,0 9,0 11,1l-4 27c-1,-1 -4,-1 -9,-1 -8,0 -15,2 -21,7 -7,5 -10,13 -10,24l0 58 -26 0 0 -113zm-77 115c-14,0 -25,-3 -34,-8 -9,-5 -16,-12 -20,-21 -4,-9 -6,-19 -6,-30 0,-12 2,-22 7,-31 5,-9 12,-16 21,-21 9,-5 19,-7 30,-7 18,0 30,5 39,14 8,10 13,23 13,41 0,4 -1,9 -1,13l-81 0c1,10 5,18 10,22 6,4 13,7 23,7 7,0 14,-1 19,-2 5,-2 10,-3 14,-6l8 19c-4,3 -9,5 -17,7 -7,2 -15,3 -25,3zm24 -68c0,-10 -2,-17 -7,-22 -5,-4 -11,-6 -20,-6 -17,0 -27,9 -29,28l56 0zm-227 -47l25 0 0 21c9,-16 24,-24 43,-24 16,0 29,5 38,15 10,10 15,25 15,44 0,11 -2,22 -7,31 -5,9 -12,16 -20,21 -8,5 -17,7 -27,7 -10,0 -18,-2 -25,-5 -7,-3 -13,-8 -17,-14l1 76 -26 0 0 -172zm60 93c11,0 19,-4 25,-11 6,-6 9,-15 9,-26 0,-11 -3,-20 -9,-26 -6,-7 -14,-10 -25,-10 -6,0 -11,1 -16,4 -5,3 -10,7 -13,12 -3,6 -4,12 -4,19l0 2c0,7 1,13 4,18 3,6 8,10 13,13 5,3 10,5 16,5zm-148 22c-12,0 -22,-3 -31,-8 -9,-5 -16,-12 -21,-21 -5,-9 -7,-19 -7,-30 0,-11 2,-21 7,-30 5,-9 12,-16 21,-21 9,-6 19,-8 31,-8 12,0 22,2 31,8 9,5 16,12 21,21 5,9 7,19 7,30 0,11 -2,21 -7,30 -5,9 -12,16 -21,21 -9,5 -19,8 -31,8zm1 -22c9,0 17,-3 22,-10 6,-7 8,-16 8,-27 0,-10 -3,-19 -8,-27 -6,-7 -14,-11 -24,-11 -9,0 -17,4 -22,11 -6,7 -9,16 -9,27 0,11 3,20 9,27 6,7 14,10 24,10zm-143 -93l27 0 0 22c2,-8 7,-14 13,-18 5,-5 12,-7 20,-7 5,0 9,0 11,1l-4 27c-2,-1 -5,-1 -10,-1 -7,0 -14,2 -21,7 -6,5 -9,13 -9,24l0 58 -27 0 0 -113zm-149 0l26 0 0 21c9,-16 23,-24 42,-24 16,0 29,5 39,15 10,10 15,25 15,44 0,11 -3,22 -8,31 -5,9 -11,16 -19,21 -9,5 -18,7 -28,7 -10,0 -18,-2 -25,-5 -7,-3 -12,-8 -16,-14l0 76 -26 0 0 -172zm61 93c10,0 19,-4 24,-11 6,-6 9,-15 9,-26 0,-11 -3,-20 -8,-26 -6,-7 -14,-10 -25,-10 -6,0 -12,1 -17,4 -5,3 -9,7 -12,12 -3,6 -5,12 -5,19l0 2c0,7 2,13 5,18 3,6 7,10 12,13 5,3 11,5 17,5zm-223 22c-10,0 -20,-2 -28,-7 -9,-5 -16,-12 -21,-21 -5,-9 -8,-19 -8,-31 0,-12 3,-22 7,-31 5,-9 11,-16 20,-21 8,-5 18,-7 29,-7 7,0 13,1 19,3 5,2 10,5 14,9 4,3 7,6 8,10l0 -19 26 0 0 113 -25 0 -1 -20c-3,6 -8,11 -15,15 -7,5 -16,7 -25,7zm4 -22c10,0 18,-3 24,-10 7,-6 10,-15 10,-25l0 -2c0,-7 -2,-13 -5,-19 -3,-5 -7,-10 -12,-13 -5,-3 -10,-5 -17,-5 -10,0 -18,4 -24,11 -6,6 -8,15 -8,26 0,11 2,20 8,27 6,7 14,10 24,10zm-158 -43l-33 63 -5 0 -47 -113 28 0 25 65 32 -65 1 0 32 65 25 -65 28 0 -47 113 -5 0 -34 -63zm-146 65c-13,0 -25,-3 -34,-8 -9,-5 -15,-12 -20,-21 -4,-9 -6,-19 -6,-30 0,-12 2,-22 7,-31 5,-9 12,-16 21,-21 9,-5 19,-7 30,-7 18,0 31,5 39,14 9,10 13,23 13,41 0,4 -1,9 -1,13l-81 0c2,10 5,18 10,22 6,4 13,7 23,7 8,0 14,-1 19,-2 5,-2 10,-3 14,-6l8 19c-4,3 -9,5 -16,7 -7,2 -16,3 -26,3zm24 -68c0,-10 -2,-17 -7,-22 -4,-4 -11,-6 -19,-6 -18,0 -28,9 -30,28l56 0zm-150 68c-8,0 -16,-1 -24,-3 -9,-2 -15,-4 -18,-7l9 -21c9,7 21,10 33,10 13,0 19,-4 19,-11 0,-3 -1,-6 -4,-8 -2,-1 -7,-3 -14,-6l-9 -3c-10,-4 -18,-9 -24,-15 -5,-5 -8,-12 -8,-21 0,-11 4,-19 12,-25 8,-5 19,-8 33,-8 6,0 13,0 19,2 7,1 12,3 15,6l-9 21c-2,-2 -6,-4 -10,-6 -5,-1 -10,-2 -16,-2 -12,0 -18,3 -18,10 0,4 2,7 5,9 3,3 8,5 15,7 1,0 4,1 8,3 11,4 18,9 23,14 6,5 8,12 8,20 0,11 -4,20 -13,25 -8,6 -19,9 -32,9zm-163 -115l27 0 0 113 -27 0 0 -113zm13 -21c-5,0 -9,-2 -13,-6 -3,-3 -5,-7 -5,-12 0,-5 2,-9 5,-12 4,-4 8,-5 13,-5 5,0 9,1 13,5 3,3 5,7 5,12 0,5 -2,9 -5,12 -4,4 -8,6 -13,6zm-79 -47l26 0 0 181 -26 0 0 -181zm-80 183c-13,0 -25,-3 -34,-8 -9,-5 -15,-12 -20,-21 -4,-9 -6,-19 -6,-30 0,-12 3,-22 8,-31 5,-9 11,-16 20,-21 9,-5 19,-7 30,-7 18,0 31,5 39,14 9,10 13,23 13,41 0,4 0,9 -1,13l-81 0c2,10 5,18 11,22 5,4 12,7 22,7 8,0 14,-1 19,-2 5,-2 10,-3 14,-6l8 19c-4,3 -9,5 -16,7 -7,2 -16,3 -26,3zm24 -68c0,-10 -2,-17 -7,-22 -4,-4 -11,-6 -19,-6 -18,0 -28,9 -30,28l56 0zm-162 68c-9,0 -18,-2 -25,-7 -7,-4 -12,-9 -15,-15l-1 20 -25 0 0 -181 26 0 0 69 -1 20c2,-7 8,-13 16,-17 8,-5 17,-7 27,-7 11,0 20,2 29,7 8,5 14,12 19,21 4,9 6,19 6,31 0,12 -2,23 -7,32 -6,8 -12,15 -21,20 -9,5 -18,7 -28,7zm-5 -22c11,0 19,-3 25,-10 6,-7 9,-16 9,-27 0,-11 -3,-20 -9,-26 -6,-7 -14,-11 -25,-11 -9,0 -17,4 -23,10 -7,7 -10,15 -10,26l0 1c0,7 2,14 5,19 3,6 7,10 12,13 5,3 10,5 16,5zm-186 -161l26 0 0 181 -26 0 0 -181zm-104 183c-10,0 -19,-2 -28,-7 -9,-5 -16,-12 -21,-21 -5,-9 -7,-19 -7,-31 0,-12 2,-22 6,-31 5,-9 11,-16 20,-21 8,-5 18,-7 29,-7 7,0 13,1 19,3 5,2 10,5 14,9 4,3 7,6 8,10l1 -19 25 0 0 113 -25 0 -1 -20c-3,6 -8,11 -15,15 -7,5 -16,7 -25,7zm5 -22c9,0 17,-3 23,-10 7,-6 10,-15 10,-25l0 -2c0,-7 -2,-13 -5,-19 -3,-5 -7,-10 -12,-13 -5,-3 -10,-5 -16,-5 -11,0 -19,4 -25,11 -6,6 -8,15 -8,26 0,11 2,20 8,27 6,7 14,10 25,10zm-153 22c-15,0 -26,-4 -32,-14 -5,-9 -8,-22 -8,-38l0 -63 26 0 0 56c0,10 1,17 2,22 1,5 3,9 6,12 3,2 8,3 15,3 4,0 9,-1 13,-4 4,-2 8,-6 10,-10 3,-5 4,-10 4,-15l0 -64 27 0 0 113 -22 0 -3 -17c-4,7 -9,11 -15,14 -6,4 -14,5 -23,5zm-118 58c-6,0 -13,-1 -20,-3l6 -24c3,1 5,2 8,3 2,0 4,1 7,1 5,0 9,-2 11,-5 3,-3 4,-9 4,-18l0 -127 26 0 0 129c0,14 -3,25 -11,32 -7,8 -17,12 -31,12zm28 -194c-5,0 -10,-2 -13,-6 -4,-3 -5,-7 -5,-12 0,-5 1,-9 5,-12 3,-4 8,-5 13,-5 5,0 9,1 12,5 4,3 5,7 5,12 0,5 -1,9 -5,12 -3,4 -7,6 -12,6zm-141 -47l26 0 0 181 -26 0 0 -181zm-104 183c-10,0 -20,-2 -28,-7 -9,-5 -16,-12 -21,-21 -5,-9 -8,-19 -8,-31 0,-12 3,-22 7,-31 5,-9 11,-16 19,-21 9,-5 19,-7 30,-7 7,0 13,1 18,3 6,2 11,5 15,9 4,3 7,6 8,10l0 -19 26 0 0 113 -25 0 -1 -20c-3,6 -8,11 -15,15 -8,5 -16,7 -25,7zm4 -22c10,0 18,-3 24,-10 6,-6 10,-15 10,-25l0 -2c0,-7 -2,-13 -5,-19 -3,-5 -7,-10 -12,-13 -5,-3 -10,-5 -17,-5 -10,0 -18,4 -24,11 -6,6 -9,15 -9,26 0,11 3,20 9,27 6,7 14,10 24,10zm-129 -72l-19 0 0 -21 19 0 0 -46 27 -6 0 52 26 0 0 21 -26 0 0 92 -27 0 0 -92zm-98 -21l26 0 0 22c3,-8 7,-14 13,-18 6,-5 13,-7 20,-7 5,0 9,0 11,1l-4 27c-1,-1 -4,-1 -9,-1 -8,0 -15,2 -21,7 -7,5 -10,13 -10,24l0 58 -26 0 0 -113zm-87 115c-12,0 -22,-3 -31,-8 -9,-5 -16,-12 -21,-21 -5,-9 -7,-19 -7,-30 0,-11 2,-21 7,-30 5,-9 12,-16 21,-21 9,-6 19,-8 31,-8 12,0 22,2 31,8 9,5 16,12 21,21 5,9 7,19 7,30 0,11 -2,21 -7,30 -5,9 -12,16 -21,21 -9,5 -19,8 -31,8zm1 -22c9,0 17,-3 22,-10 6,-7 8,-16 8,-27 0,-10 -3,-19 -8,-27 -6,-7 -14,-11 -24,-11 -9,0 -17,4 -22,11 -6,7 -9,16 -9,27 0,11 3,20 9,27 6,7 14,10 24,10zm-203 -93l25 0 0 21c9,-16 23,-24 42,-24 16,0 29,5 39,15 10,10 15,25 15,44 0,11 -3,22 -7,31 -5,9 -12,16 -20,21 -8,5 -18,7 -28,7 -9,0 -17,-2 -24,-5 -7,-3 -13,-8 -17,-14l0 76 -25 0 0 -172zm60 93c11,0 19,-4 25,-11 5,-6 8,-15 8,-26 0,-11 -2,-20 -8,-26 -6,-7 -14,-10 -25,-10 -6,0 -11,1 -16,4 -6,3 -10,7 -13,12 -3,6 -4,12 -4,19l0 2c0,7 1,13 4,18 3,6 7,10 12,13 5,3 11,5 17,5zm-443 -471c75,0 143,30 192,79 48,49 79,117 79,191 0,75 -31,143 -79,192 -49,48 -117,79 -192,79 -74,0 -142,-31 -191,-79 -49,-49 -79,-117 -79,-192 0,-74 30,-142 79,-191 49,-49 117,-79 191,-79zm-98 296l82 -60 0 254c5,0 11,1 16,1 6,0 12,-1 17,-1l0 -371 82 69 0 279c21,-10 40,-24 57,-41 40,-40 65,-95 65,-156 0,-60 -25,-116 -65,-155 -40,-40 -95,-65 -156,-65 -60,0 -116,25 -155,65 -40,39 -65,95 -65,155 0,61 25,116 65,156 16,17 36,31 57,41l0 -171zm3615 -42l0 -145 -72 120 -25 0 -71 -117 0 142 -53 0 0 -242 47 0 91 151 89 -151 46 0 1 242 -53 0zm-396 4c-25,0 -48,-5 -68,-16 -20,-11 -36,-26 -47,-45 -12,-19 -17,-40 -17,-64 0,-24 5,-45 17,-64 11,-19 27,-34 47,-45 20,-11 43,-16 68,-16 26,0 48,5 68,16 20,11 36,26 48,45 11,19 17,40 17,64 0,24 -6,45 -17,64 -12,19 -28,34 -48,45 -20,11 -42,16 -68,16zm0 -47c15,0 28,-4 39,-10 12,-7 21,-16 27,-28 7,-12 10,-25 10,-40 0,-15 -3,-28 -10,-40 -6,-12 -15,-21 -27,-28 -11,-6 -24,-10 -39,-10 -14,0 -27,4 -38,10 -12,7 -21,16 -28,28 -6,12 -10,25 -10,40 0,15 4,28 10,40 7,12 16,21 28,28 11,6 24,10 38,10zm-250 47c-25,0 -47,-5 -67,-16 -20,-10 -36,-25 -47,-44 -11,-19 -17,-41 -17,-65 0,-24 6,-45 17,-65 11,-19 27,-34 47,-44 20,-11 43,-16 68,-16 21,0 40,3 57,11 17,7 31,18 42,32l-36 33c-16,-19 -36,-29 -61,-29 -15,0 -28,4 -40,10 -12,7 -21,16 -27,28 -7,12 -10,25 -10,40 0,15 3,28 10,40 6,12 15,21 27,28 12,6 25,10 40,10 25,0 45,-10 61,-29l36 33c-11,14 -26,25 -43,32 -17,8 -36,11 -57,11zm-183 -1c-10,0 -18,-3 -24,-10 -6,-6 -10,-14 -10,-24 0,-10 4,-18 10,-24 6,-6 14,-9 24,-9 9,0 17,3 24,9 6,6 10,14 10,24 0,10 -4,18 -10,24 -7,7 -15,10 -24,10zm-134 -55l-112 0 -22 52 -57 0 108 -242 55 0 109 242 -59 0 -22 -52zm-17 -42l-39 -93 -38 93 77 0zm-245 -31l51 0 0 99c-13,10 -29,17 -46,23 -17,5 -35,7 -52,7 -25,0 -48,-5 -68,-16 -20,-10 -36,-25 -47,-44 -12,-19 -18,-41 -18,-65 0,-24 6,-45 18,-65 11,-19 27,-34 47,-44 20,-11 43,-16 69,-16 21,0 40,3 58,10 17,8 32,18 43,32l-36 33c-17,-18 -38,-28 -62,-28 -16,0 -30,4 -42,10 -12,7 -21,16 -28,28 -6,11 -10,25 -10,40 0,15 4,28 10,40 7,12 16,21 28,28 12,6 26,10 41,10 16,0 31,-4 44,-11l0 -71zm-267 73l-112 0 -22 52 -57 0 108 -242 55 0 109 242 -59 0 -22 -52zm-17 -42l-39 -93 -38 93 77 0zm-256 -148l56 0 0 242 -56 0 0 -242zm-58 0l0 242 -46 0 -121 -147 0 147 -55 0 0 -242 46 0 121 147 0 -147 55 0zm-328 190l-112 0 -22 52 -57 0 108 -242 55 0 109 242 -59 0 -22 -52zm-17 -42l-39 -93 -38 93 77 0zm-245 8l0 86 -56 0 0 -86 -94 -156 59 0 65 108 65 -108 55 0 -94 156zm-230 -156l56 0 0 242 -56 0 0 -242zm-100 242l-47 -67 -3 0 -49 0 0 67 -56 0 0 -242 105 0c21,0 40,3 56,11 16,7 28,17 36,30 9,13 13,29 13,47 0,18 -4,33 -13,46 -8,13 -21,23 -37,30l55 78 -60 0zm-2 -154c0,-14 -4,-24 -13,-32 -8,-7 -21,-10 -38,-10l-46 0 0 84 46 0c17,0 30,-4 38,-11 9,-7 13,-18 13,-31z"/>
 </g>
</svg>
