<?xml version="1.0" encoding="UTF-8"?>
<!DOCTYPE svg PUBLIC "-//W3C//DTD SVG 1.1//EN" "http://www.w3.org/Graphics/SVG/1.1/DTD/svg11.dtd">
<!-- Creator: CorelDRAW X7 -->
<svg xmlns="http://www.w3.org/2000/svg" xml:space="preserve" width="49.6677mm" height="10.3416mm" version="1.1" style="shape-rendering:geometricPrecision; text-rendering:geometricPrecision; image-rendering:optimizeQuality; fill-rule:evenodd; clip-rule:evenodd"
viewBox="0 0 2136 445"
 xmlns:xlink="http://www.w3.org/1999/xlink">
 <defs>
  <style type="text/css">
   <![CDATA[
    .fil1 {fill:#FCB80D}
    .fil3 {fill:#29B9FC;fill-rule:nonzero}
    .fil0 {fill:#29B9FC;fill-rule:nonzero}
    .fil4 {fill:#666666;fill-rule:nonzero}
    .fil2 {fill:#FCB80D;fill-rule:nonzero}
   ]]>
  </style>
 </defs>
 <g id="Layer_x0020_1">
  <metadata id="CorelCorpID_0Corel-Layer"/>
  <path class="fil0" d="M15 434c-8,0 -15,-6 -15,-14 0,-9 7,-15 15,-15l28 0 0 -293 0 0c0,-5 3,-11 8,-13l195 -97c2,-1 5,-2 8,-2 8,0 14,7 14,15l0 105 153 66c5,2 9,8 9,14l0 0 0 205 37 0c8,0 15,6 15,15 0,8 -7,14 -15,14l-52 0 0 0 -161 0 -196 0 -1 0 -42 0zm57 -29l167 0 0 -275 0 -92 -167 83 0 284zm196 0l132 0 0 -196 -132 -57 0 253z"/>
  <g id="_2187589920560">
   <path class="fil1" d="M631 75l3 -8 26 0 0 187c0,18 -7,34 -20,46 -15,13 -34,18 -53,18 -10,0 -21,-2 -30,-5 -10,-2 -20,-5 -29,-10l-6 -4 13 -28 8 4c6,3 13,5 21,7 7,2 15,3 22,3 10,0 21,-2 29,-8 7,-5 9,-13 9,-21l0 -17c-10,5 -21,8 -33,8 -23,0 -44,-8 -58,-26 -15,-19 -20,-43 -20,-66 0,-16 2,-32 9,-46 6,-14 15,-25 27,-34 13,-8 29,-12 44,-12 14,0 27,5 38,12zm93 48l0 120 -35 0 0 -176 26 0 5 19c5,-3 10,-7 16,-10 9,-5 20,-9 30,-9l6 0 12 32 -12 0c-10,0 -19,3 -26,8 -8,4 -16,10 -22,16zm104 -97c0,7 -2,12 -6,16 -5,5 -10,7 -16,7 -7,0 -12,-2 -17,-7 -4,-4 -6,-10 -6,-16 0,-6 2,-11 6,-16 5,-4 10,-6 17,-6 6,0 11,2 16,6 4,5 6,10 6,16zm-4 41l0 176 -36 0 0 -176 36 0zm101 169l0 82 -35 0 0 -82 -61 -161 32 -14 46 126 44 -120 36 0 -62 169zm165 -2c-4,2 -7,4 -11,6 -10,5 -20,7 -31,7 -17,0 -33,-4 -45,-16 -12,-11 -17,-25 -17,-41 0,-17 6,-31 19,-42 13,-10 30,-14 46,-14l36 0 0 -9c0,-8 -2,-16 -8,-22 -5,-6 -14,-7 -21,-7 -7,0 -15,0 -22,2 -7,2 -13,5 -20,8l-8 4 -13 -27 6 -5c8,-5 18,-8 27,-11 9,-2 19,-4 29,-4 17,0 34,4 47,16 13,12 18,27 18,44l0 120 -31 0 -1 -9zm-466 -34l0 -92c-4,-3 -8,-6 -13,-9 -6,-2 -12,-3 -19,-3 -13,0 -24,4 -31,15 -9,13 -12,28 -12,43 -1,16 2,32 11,45 8,11 18,15 31,15 7,0 13,-1 19,-4 5,-2 10,-6 14,-10zm463 -6l0 -30 -35 0c-8,0 -17,1 -23,7 -5,5 -7,11 -7,19 0,7 2,12 7,17 5,6 12,7 19,7 8,0 16,-1 22,-5 7,-4 12,-9 17,-15z"/>
  </g>
  <path class="fil2" d="M651 254c0,16 -6,29 -17,40 -11,10 -27,15 -47,15 -8,0 -17,-1 -28,-4 -12,-3 -20,-6 -26,-10l6 -13c8,4 15,7 22,9 7,2 15,3 25,3 14,0 25,-3 34,-10 9,-6 13,-16 13,-28l0 -33c-12,10 -26,15 -42,15 -22,0 -40,-7 -52,-23 -11,-15 -17,-35 -17,-60 0,-16 2,-30 8,-43 5,-12 14,-22 24,-29 11,-8 24,-11 39,-11 14,0 28,6 43,17l4 -13 11 0 0 178zm-18 -50l0 -100c-6,-5 -12,-10 -19,-13 -6,-3 -13,-4 -22,-4 -17,0 -29,6 -38,19 -9,13 -14,29 -14,48 0,21 4,37 13,50 8,13 21,19 38,19 9,0 17,-1 23,-5 7,-3 13,-8 19,-14z"/>
  <path id="1" class="fil2" d="M772 90c-10,0 -20,3 -31,9 -10,6 -19,13 -26,20l0 115 -18 0 0 -158 11 0 6 25c8,-6 16,-12 26,-17 10,-5 19,-8 26,-8l6 14z"/>
  <path id="2" class="fil2" d="M820 26c0,4 -2,7 -4,10 -3,3 -6,4 -10,4 -4,0 -8,-1 -10,-4 -3,-3 -4,-6 -4,-10 0,-4 1,-7 4,-9 2,-3 6,-4 10,-4 4,0 7,1 10,4 2,2 4,5 4,9zm-5 50l0 158 -18 0 0 -158 18 0z"/>
  <polygon id="3" class="fil2" points="975,76 917,234 916,234 916,309 898,309 898,234 840,80 856,73 908,212 957,76 "/>
  <path id="4" class="fil2" d="M1058 87c-10,0 -18,1 -24,2 -7,2 -14,5 -22,9l-6 -12c6,-4 14,-8 24,-10 11,-3 19,-4 27,-4 17,0 31,5 41,14 10,9 15,22 15,37l0 111 -14 0 -3 -17c-5,6 -12,11 -21,15 -9,4 -18,6 -27,6 -17,0 -30,-4 -39,-13 -9,-9 -14,-21 -14,-35 0,-15 5,-27 16,-35 10,-8 24,-12 40,-12l44 0 0 -18c0,-12 -3,-21 -9,-28 -7,-7 -16,-10 -28,-10zm-6 68c-13,0 -22,3 -29,10 -6,6 -10,15 -10,25 0,9 3,17 10,23 6,7 14,10 25,10 10,0 19,-2 27,-7 8,-5 15,-11 20,-19l0 -42 -43 0z"/>
  <polygon class="fil3" points="1216,148 1216,299 1173,299 1173,74 1216,74 1321,224 1321,74 1364,74 1364,299 1321,299 "/>
  <polygon id="1" class="fil3" points="1463,74 1463,299 1420,299 1420,74 "/>
  <path id="2" class="fil3" d="M1494 299l88 -225 37 0 87 223 -43 6 -20 -57 -86 0 -20 53 -43 0zm76 -88l60 0 -31 -78 -29 78z"/>
  <path id="3" class="fil3" d="M1865 209l-48 0 4 -33 82 0 0 111c-9,5 -20,9 -32,12 -12,3 -25,5 -38,5 -23,0 -43,-5 -59,-15 -17,-11 -30,-25 -39,-42 -9,-18 -14,-38 -14,-59 0,-23 5,-43 15,-61 10,-18 24,-32 42,-42 18,-11 38,-16 60,-16 9,0 19,1 31,4 11,2 22,6 31,11l-14 31c-6,-2 -9,-3 -9,-3 -8,-2 -15,-4 -20,-5 -5,-1 -11,-2 -18,-2 -14,0 -26,3 -37,10 -11,6 -20,15 -26,27 -7,13 -10,28 -10,45 0,16 3,31 8,43 6,12 13,22 23,28 10,7 22,10 35,10 10,0 21,-1 33,-4l0 -55z"/>
  <path id="4" class="fil3" d="M1922 299l87 -225 37 0 87 223 -43 6 -20 -57 -85 0 -20 53 -43 0zm75 -88l60 0 -30 -78 -30 78z"/>
  <path class="fil4" d="M558 354l13 0 0 11c5,-8 12,-12 22,-12 9,0 16,2 21,8 5,5 7,12 7,22 0,7 -1,12 -3,17 -3,4 -6,8 -11,11 -4,2 -9,4 -14,4 -5,0 -9,-1 -13,-3 -4,-2 -7,-4 -9,-8l0 41 -13 0 0 -91zm32 49c5,0 9,-2 12,-5 3,-4 5,-9 5,-14 0,-6 -1,-11 -4,-14 -3,-4 -8,-5 -13,-5 -4,0 -6,0 -9,2 -3,1 -5,3 -7,6 -1,3 -2,6 -2,10l0 1c0,4 1,7 2,10 2,3 4,5 7,6 2,2 5,3 9,3z"/>
  <path id="1" class="fil4" d="M662 415c-5,0 -10,-2 -14,-4 -5,-3 -8,-6 -11,-11 -3,-5 -4,-10 -4,-16 0,-7 1,-12 3,-17 3,-4 6,-8 10,-11 5,-2 10,-3 16,-3 3,0 7,0 10,1 3,2 5,3 7,5 2,2 4,3 4,5l1 -10 13 0 0 59 -13 0 -1 -10c-1,3 -4,6 -8,8 -3,2 -8,4 -13,4zm3 -12c5,0 9,-2 12,-5 3,-4 5,-8 5,-13l0 -1c0,-4 -1,-7 -2,-10 -2,-3 -4,-5 -6,-7 -3,-2 -6,-3 -9,-3 -6,0 -10,2 -13,6 -3,3 -5,8 -5,14 0,5 2,10 5,14 3,3 7,5 13,5z"/>
  <path id="2" class="fil4" d="M736 415c-4,0 -8,-1 -13,-2 -4,-1 -7,-2 -9,-4l4 -11c5,4 11,6 18,6 7,0 10,-2 10,-6 0,-2 -1,-3 -2,-4 -2,-1 -4,-2 -8,-4l-4 -1c-6,-2 -10,-5 -13,-8 -3,-3 -4,-6 -4,-11 0,-6 2,-10 6,-13 4,-3 10,-4 17,-4 4,0 7,0 11,1 3,1 6,1 7,3l-5 11c-1,-1 -3,-2 -5,-3 -2,-1 -5,-1 -8,-1 -6,0 -9,2 -9,5 0,2 1,4 2,5 2,1 4,2 8,3 0,1 2,1 4,2 6,2 10,4 12,7 3,3 4,7 4,11 0,6 -2,10 -6,13 -5,3 -10,5 -17,5z"/>
  <path id="3" class="fil4" d="M800 415c-5,0 -10,-2 -15,-4 -4,-3 -8,-6 -11,-11 -2,-5 -4,-10 -4,-16 0,-7 2,-12 4,-17 2,-4 6,-8 10,-11 4,-2 10,-3 15,-3 4,0 7,0 10,1 3,2 6,3 8,5 2,2 3,3 4,5l0 -10 13 0 0 59 -13 0 0 -10c-1,3 -4,6 -8,8 -4,2 -8,4 -13,4zm2 -12c5,0 9,-2 13,-5 3,-4 5,-8 5,-13l0 -1c0,-4 -1,-7 -3,-10 -1,-3 -3,-5 -6,-7 -3,-2 -6,-3 -9,-3 -5,0 -9,2 -12,6 -3,3 -5,8 -5,14 0,5 2,10 4,14 3,3 8,5 13,5z"/>
  <path id="4" class="fil4" d="M853 354l14 0 0 11c2,-4 4,-7 8,-9 3,-2 7,-3 12,-3 6,0 11,1 14,3 3,3 6,6 7,11 1,5 1,11 1,18l0 28 -14 0 0 -28c0,-7 0,-13 -2,-16 -1,-3 -4,-5 -9,-5 -2,0 -5,1 -8,2 -2,2 -5,4 -6,7 -2,3 -3,7 -3,11l0 29 -14 0 0 -59z"/>
  <path id="5" class="fil4" d="M956 444c-4,0 -9,0 -13,-2 -4,-1 -7,-2 -9,-3l3 -13c6,4 12,6 19,6 5,0 9,-2 13,-4 3,-2 5,-7 5,-15l0 -10c-2,3 -5,6 -9,8 -4,2 -8,4 -13,4 -5,0 -10,-2 -14,-4 -5,-3 -8,-6 -11,-11 -2,-5 -3,-10 -3,-17 0,-6 1,-11 3,-16 3,-4 6,-8 10,-11 5,-2 10,-3 16,-3 3,0 6,0 9,1 3,2 6,3 8,5 2,2 4,3 4,5l1 -10 13 0 0 59c0,10 -3,18 -8,23 -5,6 -13,8 -24,8zm0 -41c5,0 9,-2 12,-5 3,-4 5,-8 5,-14l0 0c0,-4 -1,-7 -2,-10 -2,-3 -4,-6 -7,-7 -2,-2 -5,-3 -8,-3 -6,0 -10,2 -13,6 -3,3 -5,8 -5,14 0,5 2,10 5,14 3,3 7,5 13,5z"/>
  <path id="6" class="fil4" d="M1038 354l15 0 0 59 -15 0 0 -59zm7 -11c-2,0 -5,-1 -6,-3 -2,-1 -3,-4 -3,-6 0,-3 1,-5 3,-7 1,-1 4,-2 6,-2 3,0 5,1 7,2 2,2 2,4 2,7 0,2 0,5 -2,6 -2,2 -4,3 -7,3z"/>
  <polygon id="7" class="fil4" points="1125,413 1109,413 1097,394 1094,387 1086,396 1086,413 1073,413 1073,319 1086,319 1086,370 1086,381 1108,354 1125,354 1103,379 "/>
  <polygon id="8" class="fil4" points="1138,319 1151,319 1151,413 1138,413 "/>
  <path id="9" class="fil4" d="M1197 415c-5,0 -10,-2 -15,-4 -4,-3 -8,-6 -10,-11 -3,-5 -4,-10 -4,-16 0,-7 1,-12 3,-17 2,-4 6,-8 10,-11 5,-2 10,-3 16,-3 3,0 6,0 9,1 3,2 6,3 8,5 2,2 3,3 4,5l0 -10 14 0 0 59 -14 0 0 -10c-1,3 -4,6 -8,8 -4,2 -8,4 -13,4zm3 -12c4,0 9,-2 12,-5 3,-4 5,-8 5,-13l0 -1c0,-4 -1,-7 -2,-10 -2,-3 -4,-5 -7,-7 -2,-2 -5,-3 -8,-3 -6,0 -10,2 -13,6 -3,3 -5,8 -5,14 0,5 2,10 5,14 3,3 7,5 13,5z"/>
  <path id="10" class="fil4" d="M1250 354l14 0 0 11c2,-4 4,-7 8,-9 3,-2 8,-3 12,-3 6,0 11,1 14,3 4,3 6,6 7,11 1,5 2,11 2,18l0 28 -14 0 0 -28c0,-7 -1,-13 -3,-16 -1,-3 -4,-5 -9,-5 -2,0 -5,1 -7,2 -3,2 -5,4 -7,7 -2,3 -3,7 -3,11l0 29 -14 0 0 -59z"/>
  <path id="11" class="fil4" d="M1351 445c-4,0 -7,-1 -11,-2l3 -12c2,0 3,1 4,1 1,1 3,1 4,1 3,0 5,-1 6,-3 1,-1 2,-4 2,-9l0 -67 14 0 0 68c0,7 -2,13 -6,17 -4,4 -9,6 -16,6zm14 -102c-3,0 -5,-1 -7,-3 -2,-1 -2,-4 -2,-6 0,-3 0,-5 2,-7 2,-1 4,-2 7,-2 3,0 5,1 7,2 1,2 2,4 2,7 0,2 -1,5 -2,6 -2,2 -4,3 -7,3z"/>
  <path id="12" class="fil4" d="M1413 415c-9,0 -14,-3 -17,-8 -3,-4 -5,-11 -5,-20l0 -33 14 0 0 30c0,5 0,8 1,11 0,3 2,5 3,6 2,1 4,2 8,2 2,0 4,-1 7,-2 2,-1 4,-3 5,-6 2,-2 2,-5 2,-7l0 -34 14 0 0 59 -11 0 -2 -8c-2,3 -5,6 -8,7 -3,2 -7,3 -11,3z"/>
  <path id="13" class="fil4" d="M1490 415c-5,0 -10,-2 -15,-4 -4,-3 -8,-6 -11,-11 -2,-5 -4,-10 -4,-16 0,-7 1,-12 4,-17 2,-4 6,-8 10,-11 4,-2 9,-3 15,-3 4,0 7,0 10,1 3,2 6,3 8,5 2,2 3,3 4,5l0 -10 13 0 0 59 -13 0 0 -10c-2,3 -4,6 -8,8 -4,2 -8,4 -13,4zm2 -12c5,0 9,-2 13,-5 3,-4 5,-8 5,-13l0 -1c0,-4 -1,-7 -3,-10 -1,-3 -3,-5 -6,-7 -3,-2 -6,-3 -9,-3 -5,0 -10,2 -13,6 -3,3 -4,8 -4,14 0,5 1,10 4,14 3,3 8,5 13,5z"/>
  <polygon id="14" class="fil4" points="1544,319 1558,319 1558,413 1544,413 "/>
  <path id="15" class="fil4" d="M1644 415c-5,0 -9,-2 -13,-4 -4,-2 -6,-5 -8,-8l0 10 -13 0 0 -94 13 0 0 36 0 10c1,-3 4,-6 8,-9 4,-2 9,-3 14,-3 6,0 11,1 15,4 5,2 8,6 10,10 3,5 4,11 4,17 0,6 -2,12 -4,16 -3,5 -7,8 -11,11 -5,2 -9,4 -15,4zm-2 -12c5,0 10,-2 13,-5 3,-4 4,-9 4,-14 0,-6 -1,-11 -4,-14 -3,-4 -7,-6 -13,-6 -5,0 -9,2 -13,6 -3,3 -5,7 -5,13l0 1c0,3 1,7 3,10 1,3 4,5 6,7 3,1 6,2 9,2z"/>
  <path id="16" class="fil4" d="M1717 415c-7,0 -13,-2 -18,-5 -5,-2 -8,-6 -10,-11 -3,-5 -4,-10 -4,-15 0,-6 2,-12 4,-17 3,-4 6,-8 11,-11 5,-2 10,-3 16,-3 9,0 16,2 20,7 4,5 7,12 7,21 0,3 0,5 -1,8l-42 0c1,5 3,9 5,11 3,2 7,3 12,3 4,0 8,0 10,-1 3,0 5,-1 8,-2l4 9c-2,2 -5,3 -9,4 -4,1 -8,2 -13,2zm12 -36c0,-5 -1,-9 -3,-11 -3,-3 -6,-4 -11,-4 -9,0 -14,5 -15,15l29 0z"/>
  <polygon id="17" class="fil4" points="1758,319 1772,319 1772,413 1758,413 "/>
  <path id="18" class="fil4" d="M1793 354l14 0 0 59 -14 0 0 -59zm7 -11c-3,0 -5,-1 -7,-3 -2,-1 -2,-4 -2,-6 0,-3 0,-5 2,-7 2,-1 4,-2 7,-2 3,0 5,1 7,2 1,2 2,4 2,7 0,2 -1,5 -2,6 -2,2 -4,3 -7,3z"/>
  <path id="19" class="fil4" d="M1879 415c-5,0 -9,-1 -13,-2 -5,-1 -8,-2 -10,-4l5 -11c5,4 11,6 18,6 6,0 10,-2 10,-6 0,-2 -1,-3 -3,-4 -1,-1 -3,-2 -7,-4l-5 -1c-5,-2 -9,-5 -12,-8 -3,-3 -5,-6 -5,-11 0,-6 3,-10 7,-13 4,-3 10,-4 17,-4 3,0 7,0 10,1 4,1 6,1 8,3l-5 11c-1,-1 -3,-2 -5,-3 -3,-1 -5,-1 -8,-1 -7,0 -10,2 -10,5 0,2 1,4 3,5 1,1 4,2 8,3 0,1 1,1 4,2 5,2 9,4 12,7 3,3 4,7 4,11 0,6 -2,10 -7,13 -4,3 -10,5 -16,5z"/>
  <path id="20" class="fil4" d="M1944 415c-7,0 -12,-2 -17,-5 -5,-2 -8,-6 -11,-11 -2,-5 -3,-10 -3,-15 0,-6 1,-12 4,-17 3,-4 6,-8 11,-11 4,-2 10,-3 16,-3 9,0 15,2 20,7 4,5 7,12 7,21 0,3 -1,5 -1,8l-42 0c1,5 2,9 5,11 3,2 7,3 12,3 4,0 7,0 10,-1 3,0 5,-1 7,-2l5 9c-3,2 -5,3 -9,4 -4,1 -8,2 -14,2zm13 -36c0,-5 -1,-9 -4,-11 -2,-3 -5,-4 -10,-4 -9,0 -14,5 -15,15l29 0z"/>
  <polygon id="21" class="fil4" points="2021,380 2004,413 2001,413 1976,354 1991,354 2004,389 2021,354 2021,354 2038,388 2051,354 2066,354 2041,413 2039,413 "/>
  <path id="22" class="fil4" d="M2102 415c-6,0 -11,-2 -15,-4 -5,-3 -8,-6 -11,-11 -3,-5 -4,-10 -4,-16 0,-7 1,-12 4,-17 2,-4 5,-8 10,-11 4,-2 9,-3 15,-3 4,0 7,0 10,1 3,2 5,3 7,5 2,2 4,3 5,5l0 -10 13 0 0 59 -13 0 0 -10c-2,3 -4,6 -8,8 -4,2 -9,4 -13,4zm2 -12c5,0 9,-2 12,-5 4,-4 5,-8 5,-13l0 -1c0,-4 0,-7 -2,-10 -2,-3 -4,-5 -6,-7 -3,-2 -6,-3 -9,-3 -6,0 -10,2 -13,6 -3,3 -4,8 -4,14 0,5 1,10 4,14 3,3 7,5 13,5z"/>
 </g>
</svg>
